<svg xmlns="http://www.w3.org/2000/svg" viewBox="0 0 1600 900" preserveAspectRatio="xMidYMid slice">
  <defs>
    <linearGradient id="bg" x1="0" y1="0" x2="0" y2="1">
      <stop offset="0%" stop-color="#f7f2ea"/>
      <stop offset="100%" stop-color="#f3ede3"/>
    </linearGradient>
    <path id="leaf" d="M0 0 C20 -8, 38 -2, 54 14 C38 26, 20 32, 0 30 C-4 20, -4 8, 0 0 Z" />
  </defs>

  <rect width="1600" height="900" fill="url(#bg)"/>

  <g opacity="0.95" fill="none" stroke-linecap="round" stroke-linejoin="round">
    <g transform="translate(0,0)">
      <path d="M-40 120 C120 60, 230 80, 365 165" stroke="#708066" stroke-width="2.4"/>
      <path d="M26 142 C68 122, 102 114, 150 116" stroke="#708066" stroke-width="1.6"/>
      <path d="M68 118 C76 142, 70 162, 54 184" stroke="#708066" stroke-width="1.5"/>
      <path d="M120 110 C134 132, 138 150, 130 174" stroke="#708066" stroke-width="1.5"/>
      <path d="M172 116 C186 136, 188 155, 180 176" stroke="#708066" stroke-width="1.5"/>
      <path d="M224 132 C238 150, 242 168, 236 188" stroke="#708066" stroke-width="1.5"/>
      <use href="#leaf" transform="translate(58 122) rotate(-28) scale(0.78)" stroke="#708066" stroke-width="1.3"/>
      <use href="#leaf" transform="translate(94 112) rotate(-17) scale(0.82)" stroke="#708066" stroke-width="1.3"/>
      <use href="#leaf" transform="translate(132 117) rotate(10) scale(0.84)" stroke="#708066" stroke-width="1.3"/>
      <use href="#leaf" transform="translate(168 132) rotate(24) scale(0.84)" stroke="#708066" stroke-width="1.3"/>
      <use href="#leaf" transform="translate(208 154) rotate(33) scale(0.86)" stroke="#708066" stroke-width="1.3"/>
      <use href="#leaf" transform="translate(248 178) rotate(38) scale(0.84)" stroke="#708066" stroke-width="1.3"/>
    </g>

    <g transform="translate(1600,0) scale(-1,1)">
      <path d="M-40 120 C120 60, 230 80, 365 165" stroke="#8e4034" stroke-width="2.4"/>
      <path d="M26 142 C68 122, 102 114, 150 116" stroke="#8e4034" stroke-width="1.6"/>
      <path d="M68 118 C76 142, 70 162, 54 184" stroke="#8e4034" stroke-width="1.5"/>
      <path d="M120 110 C134 132, 138 150, 130 174" stroke="#8e4034" stroke-width="1.5"/>
      <path d="M172 116 C186 136, 188 155, 180 176" stroke="#8e4034" stroke-width="1.5"/>
      <path d="M224 132 C238 150, 242 168, 236 188" stroke="#8e4034" stroke-width="1.5"/>
      <use href="#leaf" transform="translate(58 122) rotate(-28) scale(0.78)" stroke="#8e4034" stroke-width="1.3"/>
      <use href="#leaf" transform="translate(94 112) rotate(-17) scale(0.82)" stroke="#8e4034" stroke-width="1.3"/>
      <use href="#leaf" transform="translate(132 117) rotate(10) scale(0.84)" stroke="#8e4034" stroke-width="1.3"/>
      <use href="#leaf" transform="translate(168 132) rotate(24) scale(0.84)" stroke="#8e4034" stroke-width="1.3"/>
      <use href="#leaf" transform="translate(208 154) rotate(33) scale(0.86)" stroke="#8e4034" stroke-width="1.3"/>
      <use href="#leaf" transform="translate(248 178) rotate(38) scale(0.84)" stroke="#8e4034" stroke-width="1.3"/>
    </g>

    <g transform="translate(0,900) scale(1,-1)">
      <path d="M-40 120 C120 60, 230 80, 365 165" stroke="#8a554a" stroke-width="2.4"/>
      <path d="M26 142 C68 122, 102 114, 150 116" stroke="#8a554a" stroke-width="1.6"/>
      <path d="M68 118 C76 142, 70 162, 54 184" stroke="#8a554a" stroke-width="1.5"/>
      <path d="M120 110 C134 132, 138 150, 130 174" stroke="#8a554a" stroke-width="1.5"/>
      <path d="M172 116 C186 136, 188 155, 180 176" stroke="#8a554a" stroke-width="1.5"/>
      <path d="M224 132 C238 150, 242 168, 236 188" stroke="#8a554a" stroke-width="1.5"/>
      <use href="#leaf" transform="translate(58 122) rotate(-28) scale(0.78)" stroke="#8a554a" stroke-width="1.3"/>
      <use href="#leaf" transform="translate(94 112) rotate(-17) scale(0.82)" stroke="#8a554a" stroke-width="1.3"/>
      <use href="#leaf" transform="translate(132 117) rotate(10) scale(0.84)" stroke="#8a554a" stroke-width="1.3"/>
      <use href="#leaf" transform="translate(168 132) rotate(24) scale(0.84)" stroke="#8a554a" stroke-width="1.3"/>
      <use href="#leaf" transform="translate(208 154) rotate(33) scale(0.86)" stroke="#8a554a" stroke-width="1.3"/>
      <use href="#leaf" transform="translate(248 178) rotate(38) scale(0.84)" stroke="#8a554a" stroke-width="1.3"/>
    </g>

    <g transform="translate(1600,900) scale(-1,-1)">
      <path d="M-40 120 C120 60, 230 80, 365 165" stroke="#768266" stroke-width="2.4"/>
      <path d="M26 142 C68 122, 102 114, 150 116" stroke="#768266" stroke-width="1.6"/>
      <path d="M68 118 C76 142, 70 162, 54 184" stroke="#768266" stroke-width="1.5"/>
      <path d="M120 110 C134 132, 138 150, 130 174" stroke="#768266" stroke-width="1.5"/>
      <path d="M172 116 C186 136, 188 155, 180 176" stroke="#768266" stroke-width="1.5"/>
      <path d="M224 132 C238 150, 242 168, 236 188" stroke="#768266" stroke-width="1.5"/>
      <use href="#leaf" transform="translate(58 122) rotate(-28) scale(0.78)" stroke="#768266" stroke-width="1.3"/>
      <use href="#leaf" transform="translate(94 112) rotate(-17) scale(0.82)" stroke="#768266" stroke-width="1.3"/>
      <use href="#leaf" transform="translate(132 117) rotate(10) scale(0.84)" stroke="#768266" stroke-width="1.3"/>
      <use href="#leaf" transform="translate(168 132) rotate(24) scale(0.84)" stroke="#768266" stroke-width="1.3"/>
      <use href="#leaf" transform="translate(208 154) rotate(33) scale(0.86)" stroke="#768266" stroke-width="1.3"/>
      <use href="#leaf" transform="translate(248 178) rotate(38) scale(0.84)" stroke="#768266" stroke-width="1.3"/>
    </g>

    <g opacity="0.72">
      <path d="M0 286 C86 266, 112 270, 180 296" stroke="#d3ab5c" stroke-width="2.1"/>
      <path d="M0 814 C54 784, 96 786, 156 820" stroke="#d3ab5c" stroke-width="2.1"/>
      <path d="M1440 0 C1500 18, 1540 28, 1600 24" stroke="#d3ab5c" stroke-width="2.1"/>
      <path d="M0 0 C68 6, 120 30, 170 76" stroke="#d3ab5c" stroke-width="2.1"/>
      <circle cx="320" cy="176" r="3.8" fill="#d3ab5c"/>
      <circle cx="1296" cy="126" r="3.8" fill="#d3ab5c"/>
      <circle cx="280" cy="734" r="3.8" fill="#d3ab5c"/>
      <circle cx="1328" cy="742" r="3.8" fill="#d3ab5c"/>
    </g>

    <g opacity="0.32">
      <path d="M212 64 C320 8, 436 16, 520 94" stroke="#bdb5a6" stroke-width="1.2"/>
      <path d="M1090 74 C1176 14, 1298 20, 1386 96" stroke="#bdb5a6" stroke-width="1.2"/>
      <path d="M228 820 C320 756, 424 756, 520 824" stroke="#bdb5a6" stroke-width="1.2"/>
      <path d="M1078 824 C1178 758, 1300 760, 1394 824" stroke="#bdb5a6" stroke-width="1.2"/>
    </g>
  </g>
</svg>
